<svg xmlns="http://www.w3.org/2000/svg" width="100" viewBox="0 0 75 75" height="100"><defs><clipPath id="a"><path d="M11 12.266h58.8v50.25H11Zm0 0"></path></clipPath></defs><g clip-path="url(#a)"><path fill="#fff" d="M50.645 18.66a23.213 23.213 0 0 0-13.797-4.508c-18.297 0-29.215 20.024-20.028 35.328a.94.94 0 0 1-.324 1.282.935.935 0 0 1-1.277-.325c-9.922-16.535 1.863-38.156 21.629-38.156a25.151 25.151 0 0 1 14.597 4.656l-.425-1.488a.931.931 0 0 1 .64-1.152.935.935 0 0 1 1.156.64l1.227 4.31a.933.933 0 0 1-.93 1.187l-4.41.16a.936.936 0 0 1-.965-.899.936.936 0 0 1 .899-.965Zm14.242-.883a.933.933 0 1 1-1.801-.48l.367-1.383a.934.934 0 0 1 1.805.48Zm2.492 2.875a.932.932 0 0 1-.934-1.613l1.239-.715a.932.932 0 0 1 .933 1.613Zm1.523 2.371a.936.936 0 0 1 .66 1.145.933.933 0 0 1-1.144.66l-1.383-.371a.933.933 0 1 1 .485-1.8Zm-16.617 1.25-3.12 1.805a3.44 3.44 0 0 0-1.259 4.688 3.44 3.44 0 0 0 4.688 1.257l3.125-1.804Zm1.356-1.394 3.922 6.793c1.59-.36 3.203-.469 4.792-.469L56.38 18.852c-.805 1.367-1.688 2.785-2.738 4.027Zm3.816-5.89 7.082 12.261.316.012a1.04 1.04 0 0 0 .946-1.563l-2.11-3.652.086-.05a2.023 2.023 0 0 0 .743-2.77 2.03 2.03 0 0 0-2.77-.743l-.086.051-2.223-3.848a1.04 1.04 0 0 0-1.796-.011c-.063.101-.125.207-.188.312Zm1.395 18.656-.57.332a1.892 1.892 0 0 1-2.579-.692l-1.254-2.172 2.063-1.191c.054-.02.105-.04.156-.055Zm-29.516 1.21 4.824-3.757 4.75 1.543c.344.109.707.007.945-.23l3.625-3.657a.934.934 0 0 0 1.668-.465l.184-1.64a.94.94 0 0 0-1.004-1.09l-1.695.148a.938.938 0 0 0-.852 1.012c.024.293.18.539.403.691l-3.25 3.277-4.672-1.511a.919.919 0 0 0-.86.152l-5.215 4.063a.927.927 0 0 0-.16 1.304.932.932 0 0 0 1.309.16Zm-1.395 2.622a.585.585 0 0 0-.586.586v4.32c0 .32.262.582.586.582h1.641c.32 0 .582-.262.582-.582v-4.32a.584.584 0 0 0-.582-.586Zm15.649-5.993a.587.587 0 0 0-.586.582v10.317c0 .32.266.582.586.582h1.64c.32 0 .586-.262.586-.582V34.066a.587.587 0 0 0-.586-.582Zm-5.215 3.688a.584.584 0 0 0-.586.582v6.629c0 .32.262.582.586.582h1.64c.32 0 .583-.262.583-.582v-6.63a.583.583 0 0 0-.582-.581h-1.641ZM33.156 36a.583.583 0 0 0-.582.582v7.8c0 .321.262.583.582.583h1.64a.584.584 0 0 0 .587-.582v-7.801a.584.584 0 0 0-.586-.582Zm7.617-14.965-1.257-3.27H34.18l-1.258 3.27a16.838 16.838 0 0 0-4.93 2.043l-3.203-1.422-3.773 3.774 1.422 3.203a16.838 16.838 0 0 0-2.043 4.93l-3.27 1.257v5.34l3.27 1.258a16.733 16.733 0 0 0 2.043 4.93l-1.422 3.199 3.773 3.777 3.203-1.422a16.838 16.838 0 0 0 4.93 2.043l1.258 3.266h5.336l1.257-3.266a16.838 16.838 0 0 0 4.93-2.043l3.203 1.422 3.774-3.777-1.422-3.203a16.754 16.754 0 0 0 2.043-4.926l3.27-1.258v-2.144a3.75 3.75 0 0 1-2.489-1.797l-1.285-2.227a5.274 5.274 0 0 1-2.14.352c.23 1.011.35 2.062.35 3.144 0 7.825-6.339 14.16-14.16 14.16-7.82 0-14.16-6.336-14.16-14.16 0-7.82 6.34-14.16 14.16-14.16 3.536 0 6.77 1.297 9.25 3.442a5.296 5.296 0 0 1 2.13-2.313l2.207-1.273-1.528-1.528-3.203 1.422a16.838 16.838 0 0 0-4.93-2.043ZM22.676 59.531l-.422-1.488a25.14 25.14 0 0 0 14.594 4.656c16.617 0 28.539-15.746 24.39-31.605-.636.027-1.265.074-1.89.156 4.074 14.742-6.985 29.578-22.5 29.578-4.98 0-9.778-1.558-13.793-4.508l2.004-.07a.936.936 0 0 0 .898-.965.93.93 0 0 0-.965-.898l-4.41.16a.933.933 0 0 0-.93 1.187l1.227 4.305c.14.496.66.785 1.156.645a.931.931 0 0 0 .64-1.153Zm0 0" fill-rule="evenodd"></path></g><path d="M32.566 61.044a.48.48 0 0 1-.172-.031.32.32 0 0 1-.125-.125.325.325 0 0 1-.047-.172c0-.062.016-.113.047-.156a.348.348 0 0 1 .297-.172c.07 0 .133.016.188.047.05.031.093.074.125.125a.256.256 0 0 1 .047.156c0 .094-.04.172-.11.234a.342.342 0 0 1-.25.094Zm0 0" fill="#fff"></path></svg>