<svg xmlns="http://www.w3.org/2000/svg" width="100" height="100" viewBox="0 0 75 75"><defs><clipPath id="a"><path d="M13.8 7.5H44V57H13.8Zm0 0"></path></clipPath><clipPath id="b"><path d="M29 47h32.05v20.5H29Zm0 0"></path></clipPath></defs><path fill="#fff" d="M23.79 48.172h-6.442a.671.671 0 1 1 0-1.34h6.441a.671.671 0 1 1 0 1.34M40.168 13.941h-22.82a.671.671 0 1 1 0-1.34h22.82a.671.671 0 1 1 0 1.34"></path><g clip-path="url(#a)"><path fill="#fff" d="M23.79 56.004h-5.735a4.249 4.249 0 0 1-4.239-4.246v-39.86a4.245 4.245 0 0 1 4.239-4.242H39.46a4.246 4.246 0 0 1 4.242 4.242v29.438c0 .371-.3.668-.672.668a.668.668 0 0 1-.668-.668V11.898a2.907 2.907 0 0 0-2.902-2.902H18.055a2.907 2.907 0 0 0-2.903 2.902v39.86a2.91 2.91 0 0 0 2.903 2.906h5.734c.371 0 .672.297.672.668 0 .371-.3.672-.672.672"></path></g><path fill="#fff" d="M31.586 11.496H25.93a.672.672 0 0 1-.672-.672c0-.37.3-.668.672-.668h5.656c.371 0 .672.297.672.668 0 .371-.301.672-.672.672M29.3 44.457a1.243 1.243 0 1 0 .002 2.486 1.243 1.243 0 0 0-.001-2.486Zm0 3.824A2.585 2.585 0 0 1 26.72 45.7a2.587 2.587 0 0 1 2.582-2.582 2.582 2.582 0 0 1 0 5.164"></path><path fill="#fff" d="M26.723 42.004a2.266 2.266 0 0 0-2.262 2.266v13.023a2.266 2.266 0 0 0 2.262 2.262h24.406a2.266 2.266 0 0 0 2.262-2.262V44.27a2.266 2.266 0 0 0-2.262-2.266Zm24.406 18.89H26.723a3.608 3.608 0 0 1-3.602-3.601V44.27a3.605 3.605 0 0 1 3.602-3.602h24.406a3.605 3.605 0 0 1 3.601 3.602v13.023a3.608 3.608 0 0 1-3.601 3.602"></path><g clip-path="url(#b)"><path fill="#fff" d="M58.473 67.344h-26.2a2.707 2.707 0 0 1-2.703-2.703v-4.414a.671.671 0 1 1 1.34 0v4.414c0 .75.613 1.363 1.363 1.363h26.2c.754 0 1.367-.613 1.367-1.363V49.816c0-.754-.613-1.363-1.367-1.363h-4.414a.67.67 0 0 1 0-1.34h4.414a2.707 2.707 0 0 1 2.703 2.703v14.825a2.707 2.707 0 0 1-2.703 2.703"></path></g><path fill="#fff" d="M46.473 44.457a.42.42 0 0 0-.418.422v1.644c0 .23.187.418.418.418h2.976a.42.42 0 0 0 .422-.418V44.88a.42.42 0 0 0-.422-.422Zm2.976 3.824h-2.976a1.76 1.76 0 0 1-1.758-1.758V44.88c0-.969.789-1.762 1.758-1.762h2.976c.973 0 1.762.793 1.762 1.762v1.644c0 .97-.79 1.758-1.762 1.758M19.84 33.234a.671.671 0 0 1-.668-.672v-6.324c0-.37.3-.668.668-.668.37 0 .672.297.672.668v6.325c0 .37-.301.671-.672.671"></path><path fill="#fff" d="M22.121 30.453H19.84a.668.668 0 1 1 0-1.336h2.281c.61 0 1.102-.496 1.102-1.105 0-.61-.493-1.106-1.102-1.106H19.84a.668.668 0 1 1 0-1.336h2.281a2.446 2.446 0 0 1 2.445 2.442 2.446 2.446 0 0 1-2.445 2.441M26.148 33.234a.668.668 0 0 1-.637-.879l2.09-6.328a.682.682 0 0 1 .622-.457c.289-.011.539.164.64.426l2.453 6.324a.671.671 0 0 1-1.25.485l-1.777-4.586-1.508 4.554a.665.665 0 0 1-.633.461"></path><path fill="#fff" d="M29.883 31.152h-3.047a.671.671 0 0 1 0-1.34h3.047c.37 0 .668.301.668.668a.669.669 0 0 1-.668.672M35.172 33.234a.672.672 0 0 1-.672-.672v-3.671c0-.371.3-.672.672-.672.371 0 .668.3.668.672v3.672a.669.669 0 0 1-.668.671"></path><path fill="#fff" d="M35.184 29.559a.656.656 0 0 1-.473-.2l-2.652-2.648a.667.667 0 1 1 .945-.945l2.18 2.175 2.02-2.02a.667.667 0 0 1 .944 0 .672.672 0 0 1 0 .95l-2.492 2.488a.67.67 0 0 1-.472.2M29.637 56.004a.674.674 0 0 1-.672-.672c0-.371.3-.668.672-.668.37 0 .672.297.672.668 0 .371-.301.672-.672.672Zm3.578 0a.672.672 0 0 1-.672-.672c0-.371.297-.668.668-.668h.004a.671.671 0 0 1 0 1.34Zm3.574 0a.674.674 0 0 1-.672-.672c0-.371.297-.668.668-.668h.004c.371 0 .668.297.668.668a.669.669 0 0 1-.668.672Zm3.578 0a.675.675 0 0 1-.676-.672c0-.371.297-.668.668-.668h.008a.671.671 0 0 1 0 1.34Zm3.574 0a.672.672 0 0 1-.671-.672c0-.371.292-.668.664-.668h.007a.671.671 0 0 1 0 1.34Zm3.575 0a.672.672 0 0 1-.672-.672c0-.371.297-.668.664-.668h.008a.671.671 0 0 1 0 1.34M36.016 64.36a.671.671 0 0 1-.004-1.34h.004a.671.671 0 0 1 0 1.34Zm3.574 0a.671.671 0 0 1-.004-1.34h.004c.37 0 .668.3.668.671a.668.668 0 0 1-.668.668Zm3.574 0a.671.671 0 0 1-.004-1.34h.004c.371 0 .672.3.672.671 0 .368-.3.668-.672.668Zm3.574 0a.671.671 0 0 1-.004-1.34h.004c.371 0 .672.3.672.671 0 .368-.3.668-.672.668Zm3.575 0a.674.674 0 0 1-.672-.669c0-.37.3-.671.668-.671h.004c.37 0 .671.3.671.671 0 .368-.3.668-.672.668Zm3.578 0a.674.674 0 0 1-.676-.669c0-.37.3-.671.672-.671h.004a.671.671 0 0 1 0 1.34M32.531 48.281a.668.668 0 0 1-.668-.668c0-.37.297-.672.668-.672a1.243 1.243 0 0 0 0-2.484.665.665 0 0 1-.668-.668c0-.371.297-.672.668-.672a2.582 2.582 0 0 1 0 5.164M31.195 41.866a.48.48 0 0 1-.172-.032.32.32 0 0 1-.125-.125.325.325 0 0 1-.047-.172c0-.062.016-.113.047-.156a.348.348 0 0 1 .297-.172c.07 0 .133.016.187.047.051.031.094.074.125.125a.256.256 0 0 1 .047.156c0 .094-.039.172-.11.235a.342.342 0 0 1-.25.094Zm0 0"></path></svg>