<svg xmlns="http://www.w3.org/2000/svg" width="100" viewBox="0 0 75 75" height="100"><defs><clipPath id="a"><path d="M8.555 30h57.75v35.395H8.555Zm0 0"></path></clipPath><clipPath id="b"><path d="M9 15h57.305v42H9Zm0 0"></path></clipPath><clipPath id="c"><path d="M12 9.895h28V38H12Zm0 0"></path></clipPath></defs><g clip-path="url(#a)"><path fill="#fff" d="M65.64 63.707h-3.25V31.16c0-.37-.3-.672-.675-.672h-6.528c-.37 0-.675.301-.675.672v32.547h-2.918V39.75c0-.371-.301-.676-.676-.676h-6.527a.676.676 0 0 0-.676.676v23.957h-2.918V46.594a.679.679 0 0 0-.676-.676H33.59a.679.679 0 0 0-.676.676v17.113h-2.918v-9.039c0-1.203-1.621-.441-7.203-.676a.679.679 0 0 0-.676.676v9.039H9.352a.676.676 0 0 0 0 1.352H65.64a.676.676 0 0 0 0-1.352Zm-42.171 0v-8.363h5.18v8.363Zm10.797 0V47.27h5.18v16.437Zm10.8 0V40.426h5.176v23.281Zm10.797 0V31.836h5.176v31.871Zm0 0"></path></g><g clip-path="url(#b)"><path fill="#fff" d="M11.809 56.152c2.597.575 4.808-2.015 3.617-4.613-.031-.074-.078-.14-.121-.21l5.636-5.083a3.242 3.242 0 0 0 3.528.2l.261.284a3.233 3.233 0 0 0-.25 2.137 3.185 3.185 0 0 0 2.426 2.426 3.228 3.228 0 0 0 3.438-1.406c.574-.895.66-1.98.261-3.004L64.82 17.996l-.343 3.89a.675.675 0 1 0 1.343.122l.493-5.508a.689.689 0 0 0-.614-.758l-5.531-.492a.677.677 0 0 0-.121 1.348l3.93.347-34.133 28.813c-1.149-1.055-3.012-1.113-4.262-.094l-.113-.121c.039-.05.078-.102.113-.152 1.035-1.614.434-3.868-1.25-4.641-1.426-.652-3.055-.277-3.98.875a3.255 3.255 0 0 0-.305 3.61l-5.656 5.097a3.238 3.238 0 0 0-.395-.227c-2.539-1.164-5.195.973-4.613 3.622a3.19 3.19 0 0 0 2.426 2.425Zm15.82-9.882c1.687 0 2.297 1.765 1.578 2.886a1.895 1.895 0 0 1-2.012.817 1.85 1.85 0 0 1-1.394-1.395 1.877 1.877 0 0 1 1.828-2.308Zm-6.227-3.801c.54-.668 1.453-.91 2.368-.492.937.43 1.261 1.77.675 2.68a1.889 1.889 0 0 1-2.011.816c-1.336-.293-1.895-1.93-1.032-3.004Zm-7.968 8.867c.336.152.613.43.765.766.719 1.566-.57 3.066-2.101 2.73a1.855 1.855 0 0 1-1.395-1.395c-.332-1.503 1.133-2.832 2.73-2.101Zm0 0"></path></g><g clip-path="url(#c)"><path fill="#fff" d="M26.059 37.438c7.605 0 13.793-6.188 13.793-13.793 0-7.606-6.188-13.793-13.793-13.793-7.606 0-13.793 6.187-13.793 13.793 0 7.605 6.187 13.793 13.793 13.793Zm0-26.239c6.859 0 12.441 5.582 12.441 12.446 0 6.859-5.582 12.44-12.441 12.44-6.86 0-12.442-5.581-12.442-12.44-.004-6.864 5.582-12.446 12.442-12.446Zm0 0"></path></g><path fill="#fff" d="m21.703 26.895-1.633 1.94c1.625 1.419 3.457 2.231 5.496 2.438v1.63h1.43v-1.606c1.52-.074 2.742-.524 3.664-1.344.926-.816 1.387-1.879 1.387-3.183 0-1.301-.402-2.297-1.207-2.98-.805-.688-2.063-1.231-3.774-1.634h-.07v-4.199a7.15 7.15 0 0 1 3.195 1.297l1.454-2.055c-1.461-1-3.008-1.558-4.649-1.676v-1.14h-1.43V15.5c-1.445.074-2.617.52-3.515 1.34-.903.82-1.356 1.875-1.356 3.16 0 1.29.39 2.262 1.176 2.918.781.656 2.012 1.184 3.695 1.586v4.332c-1.324-.207-2.613-.856-3.863-1.941Zm5.293-2.012c.895.27 1.504.555 1.832.86.328.308.492.718.492 1.241 0 .52-.207.953-.625 1.297-.418.34-.984.551-1.699.625Zm-3.129-3.965c-.297-.29-.445-.688-.445-1.184 0-.5.191-.918.57-1.25.38-.336.906-.535 1.574-.593v3.867c-.832-.27-1.398-.551-1.699-.84ZM33.423 60.401a.48.48 0 0 1-.172-.03.32.32 0 0 1-.125-.126.325.325 0 0 1-.046-.172c0-.062.015-.113.046-.156a.348.348 0 0 1 .297-.172c.07 0 .133.016.188.047.05.031.094.074.125.125a.256.256 0 0 1 .047.156c0 .094-.04.172-.11.235a.342.342 0 0 1-.25.093Zm0 0"></path></svg>