<svg xmlns="http://www.w3.org/2000/svg" width="100" viewBox="0 0 75 75" height="100"><defs><clipPath id="a"><path d="M31.883 32.219h35.574V64.5H31.883Zm0 0"></path></clipPath><clipPath id="b"><path d="M7.5 10.5H59V62H7.5Zm0 0"></path></clipPath></defs><path fill="#fff" d="M37.86 61.66h1.894v-1.894h-1.895v1.894M54.91 61.66h1.899v-1.894H54.91v1.894"></path><g clip-path="url(#a)"><path fill="#fff" d="M55.86 62.61a1.899 1.899 0 0 1-1.895-1.895c0-1.047.851-1.895 1.894-1.895s1.895.848 1.895 1.895a1.899 1.899 0 0 1-1.895 1.894ZM36.687 52.187l-2.348-8.606 26.363-1.758-2.39 10.364Zm2.117 10.421a1.899 1.899 0 0 1-1.895-1.894 1.894 1.894 0 1 1 1.895 1.895Zm28.652-28.453L67 32.32l-4.355 1.086-1.497 6.489-29.246 1.949 3.34 12.238h22.633l-.71 3.086a3.813 3.813 0 0 0-1.306-.246c-1.394 0-2.605.77-3.261 1.898H42.07c-.66-1.129-1.867-1.898-3.265-1.898a3.796 3.796 0 0 0-3.79 3.793c0 2.09 1.7 3.789 3.79 3.789 2.093 0 3.793-1.7 3.793-3.79h9.472c0 2.09 1.7 3.79 3.79 3.79s3.788-1.7 3.788-3.79c0-.882-.316-1.683-.82-2.327l5.406-23.422 3.223-.809"></path></g><path fill="#fff" d="M41.648 43.66H37.86v1.895h3.79V43.66M49.227 43.66h-3.79v1.895h3.79V43.66M53.016 43.66v1.895h3.793V43.66h-3.793M45.438 46.504h-3.79v1.894h3.79v-1.894M53.016 46.504h-3.79v1.894h3.79v-1.894M45.438 51.238h3.789v-1.894h-3.79v1.894M53.016 51.238h3.793v-1.894h-3.793v1.894M37.86 51.238h3.788v-1.894H37.86v1.894"></path><g clip-path="url(#b)"><path fill="#fff" d="M15.781 52.191c1.504-.918 3.203-1.71 5.059-2.351 1.344 3.777 3.23 6.86 5.488 8.93a23.738 23.738 0 0 1-10.547-6.579Zm10.547-38.796c-2.258 2.07-4.148 5.16-5.492 8.94a25.987 25.987 0 0 1-5.055-2.366 23.752 23.752 0 0 1 10.547-6.574Zm24.133 6.574a25.987 25.987 0 0 1-5.055 2.367c-1.34-3.781-3.23-6.871-5.488-8.941a23.718 23.718 0 0 1 10.543 6.574Zm-2.856 15.164c-.082-3.985-.652-7.711-1.617-11 2.106-.727 4.024-1.64 5.719-2.707a23.531 23.531 0 0 1 5.074 13.707ZM34.07 26.16c3.54-.078 6.97-.578 10.098-1.465.914 3.121 1.46 6.668 1.543 10.438H34.07ZM32.176 12.47v11.797c-3.348-.078-6.574-.543-9.516-1.368 2.098-5.867 5.555-9.87 9.516-10.43Zm1.894 0c3.961.558 7.414 4.562 9.512 10.43-2.937.824-6.168 1.288-9.512 1.367ZM20.535 35.133c.078-3.77.625-7.317 1.54-10.438 3.128.887 6.558 1.387 10.1 1.465v8.973Zm-11.074 0a23.558 23.558 0 0 1 5.074-13.707c1.7 1.066 3.613 1.98 5.719 2.707-.965 3.289-1.535 7.015-1.613 11Zm10.797 12.91c-2.106.723-4.031 1.633-5.723 2.691a23.548 23.548 0 0 1-5.074-13.707h9.18c.078 3.993.648 7.723 1.617 11.016ZM34.07 61.66v-5.683h-1.894v3.714c-3.965-.554-7.418-4.562-9.52-10.43 2.95-.831 6.196-1.312 9.54-1.382l-.044-1.899c-3.52.079-6.953.594-10.078 1.48-.914-3.12-1.46-6.663-1.539-10.433h11.64v2.844h1.895v-2.844H56.81v.95h1.894v-2.844h-.023C58.176 21.465 46.91 10.5 33.12 10.5c-14.105 0-25.578 11.477-25.578 25.582S19.016 61.66 33.121 61.66h.95"></path></g><path d="M32.566 61.044a.48.48 0 0 1-.172-.031.32.32 0 0 1-.125-.125.325.325 0 0 1-.047-.172c0-.062.016-.113.047-.156a.348.348 0 0 1 .297-.172c.07 0 .133.016.188.047.05.031.093.074.125.125a.256.256 0 0 1 .047.156c0 .094-.04.172-.11.234a.342.342 0 0 1-.25.094Zm0 0" fill="#fff"></path></svg>